<svg version="1.1" id="Layer_1" xmlns="http://www.w3.org/2000/svg" x="0px" y="0px" viewBox="0 0 306 88" style="enable-background:new 0 0 306 88;" xmlns:xlink="http://www.w3.org/1999/xlink" xml:space="preserve">
<style type="text/css">
	.st0{fill:#2266cc;}
	.st1{fill:#212121;}
</style>
<g id="XMLID_2_">
	<path id="XMLID_17_" class="st0" d="M86.3,40.5l-40.1-39c-2-1.9-5.2-1.9-7.1,0.1L1.4,40.4c-1.9,2-1.9,5.2,0.1,7.1l40.1,39
		c2,1.9,5.2,1.9,7.1-0.1l37.7-38.8C88.3,45.6,88.3,42.4,86.3,40.5z M71.5,45.9L60.4,57.4c-1.1,1.2-3.1,1.2-4.2,0.1L44.7,46.3
		c-1.2-1.2-1.2-3.1-0.1-4.3l11.2-11.5c1.2-1.2,3.1-1.2,4.2-0.1l11.5,11.2C72.7,42.8,72.7,44.8,71.5,45.9z"></path>
	<g id="XMLID_1_">
		<path id="XMLID_3_" class="st1" d="M125.2,17c11.9,0,17.9,7.2,17.9,16c0,6.4-3.3,12.4-10.8,14.7l11.2,20.1h-13.4L120,48.7h-2.8
			v19.2h-11.8V17H125.2z M124.5,27.3h-7.3v12.6h7.3c4.4,0,6.5-2.4,6.5-6.4C131,29.8,128.9,27.3,124.5,27.3z"></path>
		<path id="XMLID_6_" class="st1" d="M150.5,17h11.8v50.9h-11.8V17z"></path>
		<path id="XMLID_8_" class="st1" d="M193.9,68.4c-13.8,0-25-10.8-25-26.1c0-15.3,11.2-26,25-26c13.8,0,24.9,10.7,24.9,26
			C218.8,57.6,207.7,68.4,193.9,68.4z M193.9,57.1c7.8,0,12.8-5.9,12.8-14.8c0-9.1-5.1-14.8-12.8-14.8c-7.9,0-12.9,5.7-12.9,14.8
			C181,51.2,186,57.1,193.9,57.1z"></path>
		<path id="XMLID_11_" class="st1" d="M269,42.5c0,15.1-10,25.4-25.5,25.4h-18.2V17h18.2C259.1,17,269,27.3,269,42.5z M242.8,57.2
			c8.9,0,14.2-5.4,14.2-14.7c0-9.3-5.3-14.9-14.2-14.9h-5.6v29.6H242.8z"></path>
		<path id="XMLID_14_" class="st1" d="M305.5,26.9h-17.9v10.3h15.9v9.6h-15.9V58h17.9v9.9h-29.8V17h29.8V26.9z"></path>
	</g>
</g>
</svg>